<?xml version="1.0" encoding="utf-8" standalone="no"?>
<!DOCTYPE svg PUBLIC "-//W3C//DTD SVG 1.1//EN"
  "http://www.w3.org/Graphics/SVG/1.1/DTD/svg11.dtd">
<svg xmlns:xlink="http://www.w3.org/1999/xlink" width="761.770911pt" height="328.32pt" viewBox="0 0 761.770911 328.32" xmlns="http://www.w3.org/2000/svg" version="1.1">
 <metadata>
  <rdf:RDF xmlns:dc="http://purl.org/dc/elements/1.1/" xmlns:cc="http://creativecommons.org/ns#" xmlns:rdf="http://www.w3.org/1999/02/22-rdf-syntax-ns#">
   <cc:Work>
    <dc:type rdf:resource="http://purl.org/dc/dcmitype/StillImage"/>
    <dc:date>2026-06-28T01:51:40.990237</dc:date>
    <dc:format>image/svg+xml</dc:format>
    <dc:creator>
     <cc:Agent>
      <dc:title>Matplotlib v3.9.2, https://matplotlib.org/</dc:title>
     </cc:Agent>
    </dc:creator>
   </cc:Work>
  </rdf:RDF>
 </metadata>
 <defs>
  <style type="text/css">*{stroke-linejoin: round; stroke-linecap: butt}</style>
 </defs>
 <g id="figure_1">
  <g id="patch_1">
   <path d="M 0 328.32 
L 761.770911 328.32 
L 761.770911 0 
L 0 0 
z
" style="fill: #ffffff"/>
  </g>
  <g id="axes_1">
   <g id="patch_2">
    <path d="M 38.058125 321.12 
L 556.019175 321.12 
L 556.019175 191.52 
L 38.058125 191.52 
z
" style="fill: #ffffff"/>
   </g>
   <g id="matplotlib.axis_1"/>
   <g id="matplotlib.axis_2">
    <g id="ytick_1">
     <g id="line2d_1"/>
     <g id="text_1">
      <!-- D -->
      <g transform="translate(28.128125 308.339297) scale(0.09 -0.09)">
       <defs>
        <path id="DejaVuSans-44" d="M 1259 4147 
L 1259 519 
L 2022 519 
Q 2988 519 3436 956 
Q 3884 1394 3884 2338 
Q 3884 3275 3436 3711 
Q 2988 4147 2022 4147 
L 1259 4147 
z
M 628 4666 
L 1925 4666 
Q 3281 4666 3915 4102 
Q 4550 3538 4550 2338 
Q 4550 1131 3912 565 
Q 3275 0 1925 0 
L 628 0 
L 628 4666 
z
" transform="scale(0.015625)"/>
       </defs>
       <use xlink:href="#DejaVuSans-44"/>
      </g>
     </g>
    </g>
    <g id="ytick_2">
     <g id="line2d_2"/>
     <g id="text_2">
      <!-- C -->
      <g transform="translate(28.773594 275.939297) scale(0.09 -0.09)">
       <defs>
        <path id="DejaVuSans-43" d="M 4122 4306 
L 4122 3641 
Q 3803 3938 3442 4084 
Q 3081 4231 2675 4231 
Q 1875 4231 1450 3742 
Q 1025 3253 1025 2328 
Q 1025 1406 1450 917 
Q 1875 428 2675 428 
Q 3081 428 3442 575 
Q 3803 722 4122 1019 
L 4122 359 
Q 3791 134 3420 21 
Q 3050 -91 2638 -91 
Q 1578 -91 968 557 
Q 359 1206 359 2328 
Q 359 3453 968 4101 
Q 1578 4750 2638 4750 
Q 3056 4750 3426 4639 
Q 3797 4528 4122 4306 
z
" transform="scale(0.015625)"/>
       </defs>
       <use xlink:href="#DejaVuSans-43"/>
      </g>
     </g>
    </g>
    <g id="ytick_3">
     <g id="line2d_3"/>
     <g id="text_3">
      <!-- B -->
      <g transform="translate(28.883281 243.539297) scale(0.09 -0.09)">
       <defs>
        <path id="DejaVuSans-42" d="M 1259 2228 
L 1259 519 
L 2272 519 
Q 2781 519 3026 730 
Q 3272 941 3272 1375 
Q 3272 1813 3026 2020 
Q 2781 2228 2272 2228 
L 1259 2228 
z
M 1259 4147 
L 1259 2741 
L 2194 2741 
Q 2656 2741 2882 2914 
Q 3109 3088 3109 3444 
Q 3109 3797 2882 3972 
Q 2656 4147 2194 4147 
L 1259 4147 
z
M 628 4666 
L 2241 4666 
Q 2963 4666 3353 4366 
Q 3744 4066 3744 3513 
Q 3744 3084 3544 2831 
Q 3344 2578 2956 2516 
Q 3422 2416 3680 2098 
Q 3938 1781 3938 1306 
Q 3938 681 3513 340 
Q 3088 0 2303 0 
L 628 0 
L 628 4666 
z
" transform="scale(0.015625)"/>
       </defs>
       <use xlink:href="#DejaVuSans-42"/>
      </g>
     </g>
    </g>
    <g id="ytick_4">
     <g id="line2d_4"/>
     <g id="text_4">
      <!-- A -->
      <g transform="translate(28.901562 211.139297) scale(0.09 -0.09)">
       <defs>
        <path id="DejaVuSans-41" d="M 2188 4044 
L 1331 1722 
L 3047 1722 
L 2188 4044 
z
M 1831 4666 
L 2547 4666 
L 4325 0 
L 3669 0 
L 3244 1197 
L 1141 1197 
L 716 0 
L 50 0 
L 1831 4666 
z
" transform="scale(0.015625)"/>
       </defs>
       <use xlink:href="#DejaVuSans-41"/>
      </g>
     </g>
    </g>
   </g>
   <g id="patch_3">
    <path d="M 38.058125 223.92 
L 70.430691 223.92 
L 70.430691 191.52 
L 38.058125 191.52 
z
" clip-path="url(#p87f684ec12)" style="fill: #67001f"/>
   </g>
   <g id="patch_4">
    <path d="M 70.430691 223.92 
L 102.803256 223.92 
L 102.803256 191.52 
L 70.430691 191.52 
z
" clip-path="url(#p87f684ec12)" style="fill: #053061"/>
   </g>
   <g id="patch_5">
    <path d="M 102.803256 223.92 
L 135.175822 223.92 
L 135.175822 191.52 
L 102.803256 191.52 
z
" clip-path="url(#p87f684ec12)" style="fill: #67001f"/>
   </g>
   <g id="patch_6">
    <path d="M 135.175822 223.92 
L 167.548387 223.92 
L 167.548387 191.52 
L 135.175822 191.52 
z
" clip-path="url(#p87f684ec12)" style="fill: #67001f"/>
   </g>
   <g id="patch_7">
    <path d="M 167.548387 223.92 
L 199.920953 223.92 
L 199.920953 191.52 
L 167.548387 191.52 
z
" clip-path="url(#p87f684ec12)" style="fill: #053061"/>
   </g>
   <g id="patch_8">
    <path d="M 199.920953 223.92 
L 232.293519 223.92 
L 232.293519 191.52 
L 199.920953 191.52 
z
" clip-path="url(#p87f684ec12)" style="fill: #053061"/>
   </g>
   <g id="patch_9">
    <path d="M 232.293519 223.92 
L 264.666084 223.92 
L 264.666084 191.52 
L 232.293519 191.52 
z
" clip-path="url(#p87f684ec12)" style="fill: #053061"/>
   </g>
   <g id="patch_10">
    <path d="M 264.666084 223.92 
L 297.03865 223.92 
L 297.03865 191.52 
L 264.666084 191.52 
z
" clip-path="url(#p87f684ec12)" style="fill: #67001f"/>
   </g>
   <g id="patch_11">
    <path d="M 297.03865 223.92 
L 329.411216 223.92 
L 329.411216 191.52 
L 297.03865 191.52 
z
" clip-path="url(#p87f684ec12)" style="fill: #67001f"/>
   </g>
   <g id="patch_12">
    <path d="M 329.411216 223.92 
L 361.783781 223.92 
L 361.783781 191.52 
L 329.411216 191.52 
z
" clip-path="url(#p87f684ec12)" style="fill: #67001f"/>
   </g>
   <g id="patch_13">
    <path d="M 361.783781 223.92 
L 394.156347 223.92 
L 394.156347 191.52 
L 361.783781 191.52 
z
" clip-path="url(#p87f684ec12)" style="fill: #67001f"/>
   </g>
   <g id="patch_14">
    <path d="M 394.156347 223.92 
L 426.528912 223.92 
L 426.528912 191.52 
L 394.156347 191.52 
z
" clip-path="url(#p87f684ec12)" style="fill: #67001f"/>
   </g>
   <g id="patch_15">
    <path d="M 426.528912 223.92 
L 458.901478 223.92 
L 458.901478 191.52 
L 426.528912 191.52 
z
" clip-path="url(#p87f684ec12)" style="fill: #053061"/>
   </g>
   <g id="patch_16">
    <path d="M 458.901478 223.92 
L 491.274044 223.92 
L 491.274044 191.52 
L 458.901478 191.52 
z
" clip-path="url(#p87f684ec12)" style="fill: #053061"/>
   </g>
   <g id="patch_17">
    <path d="M 491.274044 223.92 
L 523.646609 223.92 
L 523.646609 191.52 
L 491.274044 191.52 
z
" clip-path="url(#p87f684ec12)" style="fill: #053061"/>
   </g>
   <g id="patch_18">
    <path d="M 523.646609 223.92 
L 556.019175 223.92 
L 556.019175 191.52 
L 523.646609 191.52 
z
" clip-path="url(#p87f684ec12)" style="fill: #053061"/>
   </g>
   <g id="patch_19">
    <path d="M 38.058125 256.32 
L 70.430691 256.32 
L 70.430691 223.92 
L 38.058125 223.92 
z
" clip-path="url(#p87f684ec12)" style="fill: #053061"/>
   </g>
   <g id="patch_20">
    <path d="M 70.430691 256.32 
L 102.803256 256.32 
L 102.803256 223.92 
L 70.430691 223.92 
z
" clip-path="url(#p87f684ec12)" style="fill: #053061"/>
   </g>
   <g id="patch_21">
    <path d="M 102.803256 256.32 
L 135.175822 256.32 
L 135.175822 223.92 
L 102.803256 223.92 
z
" clip-path="url(#p87f684ec12)" style="fill: #053061"/>
   </g>
   <g id="patch_22">
    <path d="M 135.175822 256.32 
L 167.548387 256.32 
L 167.548387 223.92 
L 135.175822 223.92 
z
" clip-path="url(#p87f684ec12)" style="fill: #053061"/>
   </g>
   <g id="patch_23">
    <path d="M 167.548387 256.32 
L 199.920953 256.32 
L 199.920953 223.92 
L 167.548387 223.92 
z
" clip-path="url(#p87f684ec12)" style="fill: #053061"/>
   </g>
   <g id="patch_24">
    <path d="M 199.920953 256.32 
L 232.293519 256.32 
L 232.293519 223.92 
L 199.920953 223.92 
z
" clip-path="url(#p87f684ec12)" style="fill: #053061"/>
   </g>
   <g id="patch_25">
    <path d="M 232.293519 256.32 
L 264.666084 256.32 
L 264.666084 223.92 
L 232.293519 223.92 
z
" clip-path="url(#p87f684ec12)" style="fill: #053061"/>
   </g>
   <g id="patch_26">
    <path d="M 264.666084 256.32 
L 297.03865 256.32 
L 297.03865 223.92 
L 264.666084 223.92 
z
" clip-path="url(#p87f684ec12)" style="fill: #053061"/>
   </g>
   <g id="patch_27">
    <path d="M 297.03865 256.32 
L 329.411216 256.32 
L 329.411216 223.92 
L 297.03865 223.92 
z
" clip-path="url(#p87f684ec12)" style="fill: #67001f"/>
   </g>
   <g id="patch_28">
    <path d="M 329.411216 256.32 
L 361.783781 256.32 
L 361.783781 223.92 
L 329.411216 223.92 
z
" clip-path="url(#p87f684ec12)" style="fill: #67001f"/>
   </g>
   <g id="patch_29">
    <path d="M 361.783781 256.32 
L 394.156347 256.32 
L 394.156347 223.92 
L 361.783781 223.92 
z
" clip-path="url(#p87f684ec12)" style="fill: #67001f"/>
   </g>
   <g id="patch_30">
    <path d="M 394.156347 256.32 
L 426.528912 256.32 
L 426.528912 223.92 
L 394.156347 223.92 
z
" clip-path="url(#p87f684ec12)" style="fill: #67001f"/>
   </g>
   <g id="patch_31">
    <path d="M 426.528912 256.32 
L 458.901478 256.32 
L 458.901478 223.92 
L 426.528912 223.92 
z
" clip-path="url(#p87f684ec12)" style="fill: #67001f"/>
   </g>
   <g id="patch_32">
    <path d="M 458.901478 256.32 
L 491.274044 256.32 
L 491.274044 223.92 
L 458.901478 223.92 
z
" clip-path="url(#p87f684ec12)" style="fill: #67001f"/>
   </g>
   <g id="patch_33">
    <path d="M 491.274044 256.32 
L 523.646609 256.32 
L 523.646609 223.92 
L 491.274044 223.92 
z
" clip-path="url(#p87f684ec12)" style="fill: #67001f"/>
   </g>
   <g id="patch_34">
    <path d="M 523.646609 256.32 
L 556.019175 256.32 
L 556.019175 223.92 
L 523.646609 223.92 
z
" clip-path="url(#p87f684ec12)" style="fill: #67001f"/>
   </g>
   <g id="patch_35">
    <path d="M 38.058125 288.72 
L 70.430691 288.72 
L 70.430691 256.32 
L 38.058125 256.32 
z
" clip-path="url(#p87f684ec12)" style="fill: #67001f"/>
   </g>
   <g id="patch_36">
    <path d="M 70.430691 288.72 
L 102.803256 288.72 
L 102.803256 256.32 
L 70.430691 256.32 
z
" clip-path="url(#p87f684ec12)" style="fill: #67001f"/>
   </g>
   <g id="patch_37">
    <path d="M 102.803256 288.72 
L 135.175822 288.72 
L 135.175822 256.32 
L 102.803256 256.32 
z
" clip-path="url(#p87f684ec12)" style="fill: #053061"/>
   </g>
   <g id="patch_38">
    <path d="M 135.175822 288.72 
L 167.548387 288.72 
L 167.548387 256.32 
L 135.175822 256.32 
z
" clip-path="url(#p87f684ec12)" style="fill: #053061"/>
   </g>
   <g id="patch_39">
    <path d="M 167.548387 288.72 
L 199.920953 288.72 
L 199.920953 256.32 
L 167.548387 256.32 
z
" clip-path="url(#p87f684ec12)" style="fill: #053061"/>
   </g>
   <g id="patch_40">
    <path d="M 199.920953 288.72 
L 232.293519 288.72 
L 232.293519 256.32 
L 199.920953 256.32 
z
" clip-path="url(#p87f684ec12)" style="fill: #053061"/>
   </g>
   <g id="patch_41">
    <path d="M 232.293519 288.72 
L 264.666084 288.72 
L 264.666084 256.32 
L 232.293519 256.32 
z
" clip-path="url(#p87f684ec12)" style="fill: #67001f"/>
   </g>
   <g id="patch_42">
    <path d="M 264.666084 288.72 
L 297.03865 288.72 
L 297.03865 256.32 
L 264.666084 256.32 
z
" clip-path="url(#p87f684ec12)" style="fill: #67001f"/>
   </g>
   <g id="patch_43">
    <path d="M 297.03865 288.72 
L 329.411216 288.72 
L 329.411216 256.32 
L 297.03865 256.32 
z
" clip-path="url(#p87f684ec12)" style="fill: #67001f"/>
   </g>
   <g id="patch_44">
    <path d="M 329.411216 288.72 
L 361.783781 288.72 
L 361.783781 256.32 
L 329.411216 256.32 
z
" clip-path="url(#p87f684ec12)" style="fill: #053061"/>
   </g>
   <g id="patch_45">
    <path d="M 361.783781 288.72 
L 394.156347 288.72 
L 394.156347 256.32 
L 361.783781 256.32 
z
" clip-path="url(#p87f684ec12)" style="fill: #053061"/>
   </g>
   <g id="patch_46">
    <path d="M 394.156347 288.72 
L 426.528912 288.72 
L 426.528912 256.32 
L 394.156347 256.32 
z
" clip-path="url(#p87f684ec12)" style="fill: #67001f"/>
   </g>
   <g id="patch_47">
    <path d="M 426.528912 288.72 
L 458.901478 288.72 
L 458.901478 256.32 
L 426.528912 256.32 
z
" clip-path="url(#p87f684ec12)" style="fill: #67001f"/>
   </g>
   <g id="patch_48">
    <path d="M 458.901478 288.72 
L 491.274044 288.72 
L 491.274044 256.32 
L 458.901478 256.32 
z
" clip-path="url(#p87f684ec12)" style="fill: #053061"/>
   </g>
   <g id="patch_49">
    <path d="M 491.274044 288.72 
L 523.646609 288.72 
L 523.646609 256.32 
L 491.274044 256.32 
z
" clip-path="url(#p87f684ec12)" style="fill: #67001f"/>
   </g>
   <g id="patch_50">
    <path d="M 523.646609 288.72 
L 556.019175 288.72 
L 556.019175 256.32 
L 523.646609 256.32 
z
" clip-path="url(#p87f684ec12)" style="fill: #053061"/>
   </g>
   <g id="patch_51">
    <path d="M 38.058125 321.12 
L 70.430691 321.12 
L 70.430691 288.72 
L 38.058125 288.72 
z
" clip-path="url(#p87f684ec12)" style="fill: #053061"/>
   </g>
   <g id="patch_52">
    <path d="M 70.430691 321.12 
L 102.803256 321.12 
L 102.803256 288.72 
L 70.430691 288.72 
z
" clip-path="url(#p87f684ec12)" style="fill: #67001f"/>
   </g>
   <g id="patch_53">
    <path d="M 102.803256 321.12 
L 135.175822 321.12 
L 135.175822 288.72 
L 102.803256 288.72 
z
" clip-path="url(#p87f684ec12)" style="fill: #053061"/>
   </g>
   <g id="patch_54">
    <path d="M 135.175822 321.12 
L 167.548387 321.12 
L 167.548387 288.72 
L 135.175822 288.72 
z
" clip-path="url(#p87f684ec12)" style="fill: #67001f"/>
   </g>
   <g id="patch_55">
    <path d="M 167.548387 321.12 
L 199.920953 321.12 
L 199.920953 288.72 
L 167.548387 288.72 
z
" clip-path="url(#p87f684ec12)" style="fill: #053061"/>
   </g>
   <g id="patch_56">
    <path d="M 199.920953 321.12 
L 232.293519 321.12 
L 232.293519 288.72 
L 199.920953 288.72 
z
" clip-path="url(#p87f684ec12)" style="fill: #67001f"/>
   </g>
   <g id="patch_57">
    <path d="M 232.293519 321.12 
L 264.666084 321.12 
L 264.666084 288.72 
L 232.293519 288.72 
z
" clip-path="url(#p87f684ec12)" style="fill: #053061"/>
   </g>
   <g id="patch_58">
    <path d="M 264.666084 321.12 
L 297.03865 321.12 
L 297.03865 288.72 
L 264.666084 288.72 
z
" clip-path="url(#p87f684ec12)" style="fill: #67001f"/>
   </g>
   <g id="patch_59">
    <path d="M 297.03865 321.12 
L 329.411216 321.12 
L 329.411216 288.72 
L 297.03865 288.72 
z
" clip-path="url(#p87f684ec12)" style="fill: #053061"/>
   </g>
   <g id="patch_60">
    <path d="M 329.411216 321.12 
L 361.783781 321.12 
L 361.783781 288.72 
L 329.411216 288.72 
z
" clip-path="url(#p87f684ec12)" style="fill: #053061"/>
   </g>
   <g id="patch_61">
    <path d="M 361.783781 321.12 
L 394.156347 321.12 
L 394.156347 288.72 
L 361.783781 288.72 
z
" clip-path="url(#p87f684ec12)" style="fill: #67001f"/>
   </g>
   <g id="patch_62">
    <path d="M 394.156347 321.12 
L 426.528912 321.12 
L 426.528912 288.72 
L 394.156347 288.72 
z
" clip-path="url(#p87f684ec12)" style="fill: #67001f"/>
   </g>
   <g id="patch_63">
    <path d="M 426.528912 321.12 
L 458.901478 321.12 
L 458.901478 288.72 
L 426.528912 288.72 
z
" clip-path="url(#p87f684ec12)" style="fill: #67001f"/>
   </g>
   <g id="patch_64">
    <path d="M 458.901478 321.12 
L 491.274044 321.12 
L 491.274044 288.72 
L 458.901478 288.72 
z
" clip-path="url(#p87f684ec12)" style="fill: #053061"/>
   </g>
   <g id="patch_65">
    <path d="M 491.274044 321.12 
L 523.646609 321.12 
L 523.646609 288.72 
L 491.274044 288.72 
z
" clip-path="url(#p87f684ec12)" style="fill: #053061"/>
   </g>
   <g id="patch_66">
    <path d="M 523.646609 321.12 
L 556.019175 321.12 
L 556.019175 288.72 
L 523.646609 288.72 
z
" clip-path="url(#p87f684ec12)" style="fill: #67001f"/>
   </g>
   <g id="patch_67">
    <path d="M 38.058125 321.12 
L 38.058125 191.52 
" style="fill: none; stroke: #000000; stroke-width: 0.8; stroke-linejoin: miter; stroke-linecap: square"/>
   </g>
   <g id="patch_68">
    <path d="M 556.019175 321.12 
L 556.019175 191.52 
" style="fill: none; stroke: #000000; stroke-width: 0.8; stroke-linejoin: miter; stroke-linecap: square"/>
   </g>
   <g id="patch_69">
    <path d="M 38.058125 321.12 
L 556.019175 321.12 
" style="fill: none; stroke: #000000; stroke-width: 0.8; stroke-linejoin: miter; stroke-linecap: square"/>
   </g>
   <g id="patch_70">
    <path d="M 38.058125 191.52 
L 556.019175 191.52 
" style="fill: none; stroke: #000000; stroke-width: 0.8; stroke-linejoin: miter; stroke-linecap: square"/>
   </g>
   <g id="line2d_5">
    <path d="M 38.058125 321.12 
L 38.058125 191.52 
" clip-path="url(#p87f684ec12)" style="fill: none; stroke: #000000; stroke-width: 0.5; stroke-linecap: square"/>
   </g>
   <g id="line2d_6">
    <path d="M 70.430691 321.12 
L 70.430691 191.52 
" clip-path="url(#p87f684ec12)" style="fill: none; stroke: #000000; stroke-width: 0.5; stroke-linecap: square"/>
   </g>
   <g id="line2d_7">
    <path d="M 102.803256 321.12 
L 102.803256 191.52 
" clip-path="url(#p87f684ec12)" style="fill: none; stroke: #000000; stroke-width: 0.5; stroke-linecap: square"/>
   </g>
   <g id="line2d_8">
    <path d="M 135.175822 321.12 
L 135.175822 191.52 
" clip-path="url(#p87f684ec12)" style="fill: none; stroke: #000000; stroke-width: 0.5; stroke-linecap: square"/>
   </g>
   <g id="line2d_9">
    <path d="M 167.548387 321.12 
L 167.548387 191.52 
" clip-path="url(#p87f684ec12)" style="fill: none; stroke: #000000; stroke-width: 0.5; stroke-linecap: square"/>
   </g>
   <g id="line2d_10">
    <path d="M 199.920953 321.12 
L 199.920953 191.52 
" clip-path="url(#p87f684ec12)" style="fill: none; stroke: #000000; stroke-width: 0.5; stroke-linecap: square"/>
   </g>
   <g id="line2d_11">
    <path d="M 232.293519 321.12 
L 232.293519 191.52 
" clip-path="url(#p87f684ec12)" style="fill: none; stroke: #000000; stroke-width: 0.5; stroke-linecap: square"/>
   </g>
   <g id="line2d_12">
    <path d="M 264.666084 321.12 
L 264.666084 191.52 
" clip-path="url(#p87f684ec12)" style="fill: none; stroke: #000000; stroke-width: 0.5; stroke-linecap: square"/>
   </g>
   <g id="line2d_13">
    <path d="M 297.03865 321.12 
L 297.03865 191.52 
" clip-path="url(#p87f684ec12)" style="fill: none; stroke: #000000; stroke-width: 0.5; stroke-linecap: square"/>
   </g>
   <g id="line2d_14">
    <path d="M 329.411216 321.12 
L 329.411216 191.52 
" clip-path="url(#p87f684ec12)" style="fill: none; stroke: #000000; stroke-width: 0.5; stroke-linecap: square"/>
   </g>
   <g id="line2d_15">
    <path d="M 361.783781 321.12 
L 361.783781 191.52 
" clip-path="url(#p87f684ec12)" style="fill: none; stroke: #000000; stroke-width: 0.5; stroke-linecap: square"/>
   </g>
   <g id="line2d_16">
    <path d="M 394.156347 321.12 
L 394.156347 191.52 
" clip-path="url(#p87f684ec12)" style="fill: none; stroke: #000000; stroke-width: 0.5; stroke-linecap: square"/>
   </g>
   <g id="line2d_17">
    <path d="M 426.528912 321.12 
L 426.528912 191.52 
" clip-path="url(#p87f684ec12)" style="fill: none; stroke: #000000; stroke-width: 0.5; stroke-linecap: square"/>
   </g>
   <g id="line2d_18">
    <path d="M 458.901478 321.12 
L 458.901478 191.52 
" clip-path="url(#p87f684ec12)" style="fill: none; stroke: #000000; stroke-width: 0.5; stroke-linecap: square"/>
   </g>
   <g id="line2d_19">
    <path d="M 491.274044 321.12 
L 491.274044 191.52 
" clip-path="url(#p87f684ec12)" style="fill: none; stroke: #000000; stroke-width: 0.5; stroke-linecap: square"/>
   </g>
   <g id="line2d_20">
    <path d="M 523.646609 321.12 
L 523.646609 191.52 
" clip-path="url(#p87f684ec12)" style="fill: none; stroke: #000000; stroke-width: 0.5; stroke-linecap: square"/>
   </g>
   <g id="line2d_21">
    <path d="M 556.019175 321.12 
L 556.019175 191.52 
" clip-path="url(#p87f684ec12)" style="fill: none; stroke: #000000; stroke-width: 0.5; stroke-linecap: square"/>
   </g>
   <g id="line2d_22">
    <path d="M 38.058125 321.12 
L 556.019175 321.12 
" clip-path="url(#p87f684ec12)" style="fill: none; stroke: #000000; stroke-width: 0.5; stroke-linecap: square"/>
   </g>
   <g id="line2d_23">
    <path d="M 38.058125 288.72 
L 556.019175 288.72 
" clip-path="url(#p87f684ec12)" style="fill: none; stroke: #000000; stroke-width: 0.5; stroke-linecap: square"/>
   </g>
   <g id="line2d_24">
    <path d="M 38.058125 256.32 
L 556.019175 256.32 
" clip-path="url(#p87f684ec12)" style="fill: none; stroke: #000000; stroke-width: 0.5; stroke-linecap: square"/>
   </g>
   <g id="line2d_25">
    <path d="M 38.058125 223.92 
L 556.019175 223.92 
" clip-path="url(#p87f684ec12)" style="fill: none; stroke: #000000; stroke-width: 0.5; stroke-linecap: square"/>
   </g>
   <g id="line2d_26">
    <path d="M 38.058125 191.52 
L 556.019175 191.52 
" clip-path="url(#p87f684ec12)" style="fill: none; stroke: #000000; stroke-width: 0.5; stroke-linecap: square"/>
   </g>
  </g>
  <g id="axes_2">
   <g id="patch_71">
    <path d="M 38.058125 187.2 
L 556.019175 187.2 
L 556.019175 7.2 
L 38.058125 7.2 
z
" style="fill: #ffffff"/>
   </g>
   <g id="matplotlib.axis_3">
    <g id="xtick_1"/>
    <g id="xtick_2"/>
    <g id="xtick_3"/>
    <g id="xtick_4"/>
    <g id="xtick_5"/>
    <g id="xtick_6"/>
    <g id="xtick_7"/>
    <g id="xtick_8"/>
   </g>
   <g id="matplotlib.axis_4">
    <g id="ytick_5">
     <g id="line2d_27">
      <defs>
       <path id="md3f37327a1" d="M 0 0 
L -3.5 0 
" style="stroke: #000000; stroke-width: 0.8"/>
      </defs>
      <g>
       <use xlink:href="#md3f37327a1" x="38.058125" y="172.015271" style="stroke: #000000; stroke-width: 0.8"/>
      </g>
     </g>
     <g id="text_5">
      <!-- 40 -->
      <g transform="translate(20.878125 175.054646) scale(0.08 -0.08)">
       <defs>
        <path id="DejaVuSans-34" d="M 2419 4116 
L 825 1625 
L 2419 1625 
L 2419 4116 
z
M 2253 4666 
L 3047 4666 
L 3047 1625 
L 3713 1625 
L 3713 1100 
L 3047 1100 
L 3047 0 
L 2419 0 
L 2419 1100 
L 313 1100 
L 313 1709 
L 2253 4666 
z
" transform="scale(0.015625)"/>
        <path id="DejaVuSans-30" d="M 2034 4250 
Q 1547 4250 1301 3770 
Q 1056 3291 1056 2328 
Q 1056 1369 1301 889 
Q 1547 409 2034 409 
Q 2525 409 2770 889 
Q 3016 1369 3016 2328 
Q 3016 3291 2770 3770 
Q 2525 4250 2034 4250 
z
M 2034 4750 
Q 2819 4750 3233 4129 
Q 3647 3509 3647 2328 
Q 3647 1150 3233 529 
Q 2819 -91 2034 -91 
Q 1250 -91 836 529 
Q 422 1150 422 2328 
Q 422 3509 836 4129 
Q 1250 4750 2034 4750 
z
" transform="scale(0.015625)"/>
       </defs>
       <use xlink:href="#DejaVuSans-34"/>
       <use xlink:href="#DejaVuSans-30" x="63.623047"/>
      </g>
     </g>
    </g>
    <g id="ytick_6">
     <g id="line2d_28">
      <g>
       <use xlink:href="#md3f37327a1" x="38.058125" y="144.305911" style="stroke: #000000; stroke-width: 0.8"/>
      </g>
     </g>
     <g id="text_6">
      <!-- 50 -->
      <g transform="translate(20.878125 147.345286) scale(0.08 -0.08)">
       <defs>
        <path id="DejaVuSans-35" d="M 691 4666 
L 3169 4666 
L 3169 4134 
L 1269 4134 
L 1269 2991 
Q 1406 3038 1543 3061 
Q 1681 3084 1819 3084 
Q 2600 3084 3056 2656 
Q 3513 2228 3513 1497 
Q 3513 744 3044 326 
Q 2575 -91 1722 -91 
Q 1428 -91 1123 -41 
Q 819 9 494 109 
L 494 744 
Q 775 591 1075 516 
Q 1375 441 1709 441 
Q 2250 441 2565 725 
Q 2881 1009 2881 1497 
Q 2881 1984 2565 2268 
Q 2250 2553 1709 2553 
Q 1456 2553 1204 2497 
Q 953 2441 691 2322 
L 691 4666 
z
" transform="scale(0.015625)"/>
       </defs>
       <use xlink:href="#DejaVuSans-35"/>
       <use xlink:href="#DejaVuSans-30" x="63.623047"/>
      </g>
     </g>
    </g>
    <g id="ytick_7">
     <g id="line2d_29">
      <g>
       <use xlink:href="#md3f37327a1" x="38.058125" y="116.596552" style="stroke: #000000; stroke-width: 0.8"/>
      </g>
     </g>
     <g id="text_7">
      <!-- 60 -->
      <g transform="translate(20.878125 119.635927) scale(0.08 -0.08)">
       <defs>
        <path id="DejaVuSans-36" d="M 2113 2584 
Q 1688 2584 1439 2293 
Q 1191 2003 1191 1497 
Q 1191 994 1439 701 
Q 1688 409 2113 409 
Q 2538 409 2786 701 
Q 3034 994 3034 1497 
Q 3034 2003 2786 2293 
Q 2538 2584 2113 2584 
z
M 3366 4563 
L 3366 3988 
Q 3128 4100 2886 4159 
Q 2644 4219 2406 4219 
Q 1781 4219 1451 3797 
Q 1122 3375 1075 2522 
Q 1259 2794 1537 2939 
Q 1816 3084 2150 3084 
Q 2853 3084 3261 2657 
Q 3669 2231 3669 1497 
Q 3669 778 3244 343 
Q 2819 -91 2113 -91 
Q 1303 -91 875 529 
Q 447 1150 447 2328 
Q 447 3434 972 4092 
Q 1497 4750 2381 4750 
Q 2619 4750 2861 4703 
Q 3103 4656 3366 4563 
z
" transform="scale(0.015625)"/>
       </defs>
       <use xlink:href="#DejaVuSans-36"/>
       <use xlink:href="#DejaVuSans-30" x="63.623047"/>
      </g>
     </g>
    </g>
    <g id="ytick_8">
     <g id="line2d_30">
      <g>
       <use xlink:href="#md3f37327a1" x="38.058125" y="88.887192" style="stroke: #000000; stroke-width: 0.8"/>
      </g>
     </g>
     <g id="text_8">
      <!-- 70 -->
      <g transform="translate(20.878125 91.926567) scale(0.08 -0.08)">
       <defs>
        <path id="DejaVuSans-37" d="M 525 4666 
L 3525 4666 
L 3525 4397 
L 1831 0 
L 1172 0 
L 2766 4134 
L 525 4134 
L 525 4666 
z
" transform="scale(0.015625)"/>
       </defs>
       <use xlink:href="#DejaVuSans-37"/>
       <use xlink:href="#DejaVuSans-30" x="63.623047"/>
      </g>
     </g>
    </g>
    <g id="ytick_9">
     <g id="line2d_31">
      <g>
       <use xlink:href="#md3f37327a1" x="38.058125" y="61.177833" style="stroke: #000000; stroke-width: 0.8"/>
      </g>
     </g>
     <g id="text_9">
      <!-- 80 -->
      <g transform="translate(20.878125 64.217208) scale(0.08 -0.08)">
       <defs>
        <path id="DejaVuSans-38" d="M 2034 2216 
Q 1584 2216 1326 1975 
Q 1069 1734 1069 1313 
Q 1069 891 1326 650 
Q 1584 409 2034 409 
Q 2484 409 2743 651 
Q 3003 894 3003 1313 
Q 3003 1734 2745 1975 
Q 2488 2216 2034 2216 
z
M 1403 2484 
Q 997 2584 770 2862 
Q 544 3141 544 3541 
Q 544 4100 942 4425 
Q 1341 4750 2034 4750 
Q 2731 4750 3128 4425 
Q 3525 4100 3525 3541 
Q 3525 3141 3298 2862 
Q 3072 2584 2669 2484 
Q 3125 2378 3379 2068 
Q 3634 1759 3634 1313 
Q 3634 634 3220 271 
Q 2806 -91 2034 -91 
Q 1263 -91 848 271 
Q 434 634 434 1313 
Q 434 1759 690 2068 
Q 947 2378 1403 2484 
z
M 1172 3481 
Q 1172 3119 1398 2916 
Q 1625 2713 2034 2713 
Q 2441 2713 2670 2916 
Q 2900 3119 2900 3481 
Q 2900 3844 2670 4047 
Q 2441 4250 2034 4250 
Q 1625 4250 1398 4047 
Q 1172 3844 1172 3481 
z
" transform="scale(0.015625)"/>
       </defs>
       <use xlink:href="#DejaVuSans-38"/>
       <use xlink:href="#DejaVuSans-30" x="63.623047"/>
      </g>
     </g>
    </g>
    <g id="ytick_10">
     <g id="line2d_32">
      <g>
       <use xlink:href="#md3f37327a1" x="38.058125" y="33.468473" style="stroke: #000000; stroke-width: 0.8"/>
      </g>
     </g>
     <g id="text_10">
      <!-- 90 -->
      <g transform="translate(20.878125 36.507848) scale(0.08 -0.08)">
       <defs>
        <path id="DejaVuSans-39" d="M 703 97 
L 703 672 
Q 941 559 1184 500 
Q 1428 441 1663 441 
Q 2288 441 2617 861 
Q 2947 1281 2994 2138 
Q 2813 1869 2534 1725 
Q 2256 1581 1919 1581 
Q 1219 1581 811 2004 
Q 403 2428 403 3163 
Q 403 3881 828 4315 
Q 1253 4750 1959 4750 
Q 2769 4750 3195 4129 
Q 3622 3509 3622 2328 
Q 3622 1225 3098 567 
Q 2575 -91 1691 -91 
Q 1453 -91 1209 -44 
Q 966 3 703 97 
z
M 1959 2075 
Q 2384 2075 2632 2365 
Q 2881 2656 2881 3163 
Q 2881 3666 2632 3958 
Q 2384 4250 1959 4250 
Q 1534 4250 1286 3958 
Q 1038 3666 1038 3163 
Q 1038 2656 1286 2365 
Q 1534 2075 1959 2075 
z
" transform="scale(0.015625)"/>
       </defs>
       <use xlink:href="#DejaVuSans-39"/>
       <use xlink:href="#DejaVuSans-30" x="63.623047"/>
      </g>
     </g>
    </g>
    <g id="text_11">
     <!-- y -->
     <g transform="translate(14.798437 100.159375) rotate(-90) scale(0.1 -0.1)">
      <defs>
       <path id="DejaVuSans-79" d="M 2059 -325 
Q 1816 -950 1584 -1140 
Q 1353 -1331 966 -1331 
L 506 -1331 
L 506 -850 
L 844 -850 
Q 1081 -850 1212 -737 
Q 1344 -625 1503 -206 
L 1606 56 
L 191 3500 
L 800 3500 
L 1894 763 
L 2988 3500 
L 3597 3500 
L 2059 -325 
z
" transform="scale(0.015625)"/>
      </defs>
      <use xlink:href="#DejaVuSans-79"/>
     </g>
    </g>
   </g>
   <g id="patch_72">
    <path d="M 38.058125 187.2 
L 38.058125 7.2 
" style="fill: none; stroke: #000000; stroke-width: 0.8; stroke-linejoin: miter; stroke-linecap: square"/>
   </g>
   <g id="PathCollection_1">
    <defs>
     <path id="ma4122d7878" d="M 0 5.74275 
C 1.522995 5.74275 2.983818 5.137658 4.060738 4.060738 
C 5.137658 2.983818 5.74275 1.522995 5.74275 0 
C 5.74275 -1.522995 5.137658 -2.983818 4.060738 -4.060738 
C 2.983818 -5.137658 1.522995 -5.74275 0 -5.74275 
C -1.522995 -5.74275 -2.983818 -5.137658 -4.060738 -4.060738 
C -5.137658 -2.983818 -5.74275 -1.522995 -5.74275 0 
C -5.74275 1.522995 -5.137658 2.983818 -4.060738 4.060738 
C -2.983818 5.137658 -1.522995 5.74275 0 5.74275 
z
"/>
    </defs>
    <g>
     <use xlink:href="#ma4122d7878" x="54.244408" y="174.786207"/>
    </g>
   </g>
   <g id="PathCollection_2">
    <g>
     <use xlink:href="#ma4122d7878" x="86.616973" y="172.015271"/>
    </g>
   </g>
   <g id="PathCollection_3">
    <g>
     <use xlink:href="#ma4122d7878" x="118.989539" y="169.244335"/>
    </g>
   </g>
   <g id="PathCollection_4">
    <g>
     <use xlink:href="#ma4122d7878" x="151.362105" y="163.702463"/>
    </g>
   </g>
   <g id="PathCollection_5">
    <g>
     <use xlink:href="#ma4122d7878" x="183.73467" y="158.160591"/>
    </g>
   </g>
   <g id="PathCollection_6">
    <g>
     <use xlink:href="#ma4122d7878" x="216.107236" y="152.618719"/>
    </g>
   </g>
   <g id="PathCollection_7">
    <g>
     <use xlink:href="#ma4122d7878" x="248.479802" y="144.305911"/>
    </g>
   </g>
   <g id="PathCollection_8">
    <g>
     <use xlink:href="#ma4122d7878" x="280.852367" y="141.534975"/>
    </g>
   </g>
   <g id="PathCollection_9">
    <g>
     <use xlink:href="#ma4122d7878" x="313.224933" y="99.970936"/>
    </g>
   </g>
   <g id="PathCollection_10">
    <g>
     <use xlink:href="#ma4122d7878" x="345.597498" y="97.2"/>
    </g>
   </g>
   <g id="PathCollection_11">
    <g>
     <use xlink:href="#ma4122d7878" x="377.970064" y="91.658128"/>
    </g>
   </g>
   <g id="PathCollection_12">
    <g>
     <use xlink:href="#ma4122d7878" x="410.34263" y="83.34532"/>
    </g>
   </g>
   <g id="PathCollection_13">
    <g>
     <use xlink:href="#ma4122d7878" x="442.715195" y="41.781281"/>
    </g>
   </g>
   <g id="PathCollection_14">
    <g>
     <use xlink:href="#ma4122d7878" x="475.087761" y="33.468473"/>
    </g>
   </g>
   <g id="PathCollection_15">
    <g>
     <use xlink:href="#ma4122d7878" x="507.460327" y="19.613793"/>
    </g>
   </g>
   <g id="PathCollection_16">
    <g>
     <use xlink:href="#ma4122d7878" x="539.832892" y="19.613793"/>
    </g>
   </g>
  </g>
  <g id="axes_3">
   <g id="patch_73">
    <path d="M 599.99191 216.63 
L 617.796821 216.63 
L 617.796821 198.81 
L 599.99191 198.81 
z
" clip-path="url(#p39a505d0cf)" style="fill: #053061; stroke: #000000; stroke-width: 0.3; stroke-linejoin: miter"/>
   </g>
   <g id="patch_74">
    <path d="M 697.109607 216.63 
L 714.914518 216.63 
L 714.914518 198.81 
L 697.109607 198.81 
z
" clip-path="url(#p39a505d0cf)" style="fill: #67001f; stroke: #000000; stroke-width: 0.3; stroke-linejoin: miter"/>
   </g>
   <g id="patch_75">
    <path d="M 599.99191 249.03 
L 617.796821 249.03 
L 617.796821 231.21 
L 599.99191 231.21 
z
" clip-path="url(#p39a505d0cf)" style="fill: #053061; stroke: #000000; stroke-width: 0.3; stroke-linejoin: miter"/>
   </g>
   <g id="patch_76">
    <path d="M 697.109607 249.03 
L 714.914518 249.03 
L 714.914518 231.21 
L 697.109607 231.21 
z
" clip-path="url(#p39a505d0cf)" style="fill: #67001f; stroke: #000000; stroke-width: 0.3; stroke-linejoin: miter"/>
   </g>
   <g id="patch_77">
    <path d="M 599.99191 281.43 
L 617.796821 281.43 
L 617.796821 263.61 
L 599.99191 263.61 
z
" clip-path="url(#p39a505d0cf)" style="fill: #053061; stroke: #000000; stroke-width: 0.3; stroke-linejoin: miter"/>
   </g>
   <g id="patch_78">
    <path d="M 697.109607 281.43 
L 714.914518 281.43 
L 714.914518 263.61 
L 697.109607 263.61 
z
" clip-path="url(#p39a505d0cf)" style="fill: #67001f; stroke: #000000; stroke-width: 0.3; stroke-linejoin: miter"/>
   </g>
   <g id="patch_79">
    <path d="M 599.99191 313.83 
L 617.796821 313.83 
L 617.796821 296.01 
L 599.99191 296.01 
z
" clip-path="url(#p39a505d0cf)" style="fill: #053061; stroke: #000000; stroke-width: 0.3; stroke-linejoin: miter"/>
   </g>
   <g id="patch_80">
    <path d="M 697.109607 313.83 
L 714.914518 313.83 
L 714.914518 296.01 
L 697.109607 296.01 
z
" clip-path="url(#p39a505d0cf)" style="fill: #67001f; stroke: #000000; stroke-width: 0.3; stroke-linejoin: miter"/>
   </g>
   <g id="text_12">
    <!-- -1 -->
    <g transform="translate(620.710352 211.653765) scale(0.14256 -0.14256)">
     <defs>
      <path id="DejaVuSans-2d" d="M 313 2009 
L 1997 2009 
L 1997 1497 
L 313 1497 
L 313 2009 
z
" transform="scale(0.015625)"/>
      <path id="DejaVuSans-31" d="M 794 531 
L 1825 531 
L 1825 4091 
L 703 3866 
L 703 4441 
L 1819 4666 
L 2450 4666 
L 2450 531 
L 3481 531 
L 3481 0 
L 794 0 
L 794 531 
z
" transform="scale(0.015625)"/>
     </defs>
     <use xlink:href="#DejaVuSans-2d"/>
     <use xlink:href="#DejaVuSans-31" x="36.083984"/>
    </g>
   </g>
   <g id="text_13">
    <!-- 1 -->
    <g transform="translate(717.828049 211.653765) scale(0.14256 -0.14256)">
     <use xlink:href="#DejaVuSans-31"/>
    </g>
   </g>
   <g id="text_14">
    <!-- -1 -->
    <g transform="translate(620.710352 244.053765) scale(0.14256 -0.14256)">
     <use xlink:href="#DejaVuSans-2d"/>
     <use xlink:href="#DejaVuSans-31" x="36.083984"/>
    </g>
   </g>
   <g id="text_15">
    <!-- 1 -->
    <g transform="translate(717.828049 244.053765) scale(0.14256 -0.14256)">
     <use xlink:href="#DejaVuSans-31"/>
    </g>
   </g>
   <g id="text_16">
    <!-- -1 -->
    <g transform="translate(620.710352 276.453765) scale(0.14256 -0.14256)">
     <use xlink:href="#DejaVuSans-2d"/>
     <use xlink:href="#DejaVuSans-31" x="36.083984"/>
    </g>
   </g>
   <g id="text_17">
    <!-- 1 -->
    <g transform="translate(717.828049 276.453765) scale(0.14256 -0.14256)">
     <use xlink:href="#DejaVuSans-31"/>
    </g>
   </g>
   <g id="text_18">
    <!-- -1 -->
    <g transform="translate(620.710352 308.853765) scale(0.14256 -0.14256)">
     <use xlink:href="#DejaVuSans-2d"/>
     <use xlink:href="#DejaVuSans-31" x="36.083984"/>
    </g>
   </g>
   <g id="text_19">
    <!-- 1 -->
    <g transform="translate(717.828049 308.853765) scale(0.14256 -0.14256)">
     <use xlink:href="#DejaVuSans-31"/>
    </g>
   </g>
  </g>
 </g>
 <defs>
  <clipPath id="p87f684ec12">
   <rect x="38.058125" y="191.52" width="517.96105" height="129.6"/>
  </clipPath>
  <clipPath id="p39a505d0cf">
   <rect x="560.335517" y="191.52" width="194.235394" height="129.6"/>
  </clipPath>
 </defs>
</svg>
