<?xml version="1.0" encoding="utf-8" standalone="no"?>
<!DOCTYPE svg PUBLIC "-//W3C//DTD SVG 1.1//EN"
  "http://www.w3.org/Graphics/SVG/1.1/DTD/svg11.dtd">
<svg xmlns:xlink="http://www.w3.org/1999/xlink" width="226.533912pt" height="119.598649pt" viewBox="0 0 226.533912 119.598649" xmlns="http://www.w3.org/2000/svg" version="1.1">
 <metadata>
  <rdf:RDF xmlns:dc="http://purl.org/dc/elements/1.1/" xmlns:cc="http://creativecommons.org/ns#" xmlns:rdf="http://www.w3.org/1999/02/22-rdf-syntax-ns#">
   <cc:Work>
    <dc:type rdf:resource="http://purl.org/dc/dcmitype/StillImage"/>
    <dc:date>2026-06-28T01:51:41.804318</dc:date>
    <dc:format>image/svg+xml</dc:format>
    <dc:creator>
     <cc:Agent>
      <dc:title>Matplotlib v3.9.2, https://matplotlib.org/</dc:title>
     </cc:Agent>
    </dc:creator>
   </cc:Work>
  </rdf:RDF>
 </metadata>
 <defs>
  <style type="text/css">*{stroke-linejoin: round; stroke-linecap: butt}</style>
 </defs>
 <g id="figure_1">
  <g id="patch_1">
   <path d="M 0 119.598649 
L 226.533912 119.598649 
L 226.533912 -0 
L 0 -0 
z
" style="fill: #ffffff"/>
  </g>
  <g id="axes_1">
   <g id="patch_2">
    <path d="M 45.751406 112.398649 
L 142.473997 112.398649 
L 142.473997 76.182721 
L 45.751406 76.182721 
z
" style="fill: #ffffff"/>
   </g>
   <g id="matplotlib.axis_1"/>
   <g id="matplotlib.axis_2">
    <g id="ytick_1">
     <g id="line2d_1"/>
     <g id="text_1">
      <!-- time -->
      <g transform="translate(22.418438 109.781958) scale(0.09 -0.09)">
       <defs>
        <path id="DejaVuSans-74" d="M 1172 4494 
L 1172 3500 
L 2356 3500 
L 2356 3053 
L 1172 3053 
L 1172 1153 
Q 1172 725 1289 603 
Q 1406 481 1766 481 
L 2356 481 
L 2356 0 
L 1766 0 
Q 1100 0 847 248 
Q 594 497 594 1153 
L 594 3053 
L 172 3053 
L 172 3500 
L 594 3500 
L 594 4494 
L 1172 4494 
z
" transform="scale(0.015625)"/>
        <path id="DejaVuSans-69" d="M 603 3500 
L 1178 3500 
L 1178 0 
L 603 0 
L 603 3500 
z
M 603 4863 
L 1178 4863 
L 1178 4134 
L 603 4134 
L 603 4863 
z
" transform="scale(0.015625)"/>
        <path id="DejaVuSans-6d" d="M 3328 2828 
Q 3544 3216 3844 3400 
Q 4144 3584 4550 3584 
Q 5097 3584 5394 3201 
Q 5691 2819 5691 2113 
L 5691 0 
L 5113 0 
L 5113 2094 
Q 5113 2597 4934 2840 
Q 4756 3084 4391 3084 
Q 3944 3084 3684 2787 
Q 3425 2491 3425 1978 
L 3425 0 
L 2847 0 
L 2847 2094 
Q 2847 2600 2669 2842 
Q 2491 3084 2119 3084 
Q 1678 3084 1418 2786 
Q 1159 2488 1159 1978 
L 1159 0 
L 581 0 
L 581 3500 
L 1159 3500 
L 1159 2956 
Q 1356 3278 1631 3431 
Q 1906 3584 2284 3584 
Q 2666 3584 2933 3390 
Q 3200 3197 3328 2828 
z
" transform="scale(0.015625)"/>
        <path id="DejaVuSans-65" d="M 3597 1894 
L 3597 1613 
L 953 1613 
Q 991 1019 1311 708 
Q 1631 397 2203 397 
Q 2534 397 2845 478 
Q 3156 559 3463 722 
L 3463 178 
Q 3153 47 2828 -22 
Q 2503 -91 2169 -91 
Q 1331 -91 842 396 
Q 353 884 353 1716 
Q 353 2575 817 3079 
Q 1281 3584 2069 3584 
Q 2775 3584 3186 3129 
Q 3597 2675 3597 1894 
z
M 3022 2063 
Q 3016 2534 2758 2815 
Q 2500 3097 2075 3097 
Q 1594 3097 1305 2825 
Q 1016 2553 972 2059 
L 3022 2063 
z
" transform="scale(0.015625)"/>
       </defs>
       <use xlink:href="#DejaVuSans-74"/>
       <use xlink:href="#DejaVuSans-69" x="39.208984"/>
       <use xlink:href="#DejaVuSans-6d" x="66.992188"/>
       <use xlink:href="#DejaVuSans-65" x="164.404297"/>
      </g>
     </g>
    </g>
    <g id="ytick_2">
     <g id="line2d_2"/>
     <g id="text_2">
      <!-- temp -->
      <g transform="translate(19.205156 97.709982) scale(0.09 -0.09)">
       <defs>
        <path id="DejaVuSans-70" d="M 1159 525 
L 1159 -1331 
L 581 -1331 
L 581 3500 
L 1159 3500 
L 1159 2969 
Q 1341 3281 1617 3432 
Q 1894 3584 2278 3584 
Q 2916 3584 3314 3078 
Q 3713 2572 3713 1747 
Q 3713 922 3314 415 
Q 2916 -91 2278 -91 
Q 1894 -91 1617 61 
Q 1341 213 1159 525 
z
M 3116 1747 
Q 3116 2381 2855 2742 
Q 2594 3103 2138 3103 
Q 1681 3103 1420 2742 
Q 1159 2381 1159 1747 
Q 1159 1113 1420 752 
Q 1681 391 2138 391 
Q 2594 391 2855 752 
Q 3116 1113 3116 1747 
z
" transform="scale(0.015625)"/>
       </defs>
       <use xlink:href="#DejaVuSans-74"/>
       <use xlink:href="#DejaVuSans-65" x="39.208984"/>
       <use xlink:href="#DejaVuSans-6d" x="100.732422"/>
       <use xlink:href="#DejaVuSans-70" x="198.144531"/>
      </g>
     </g>
    </g>
    <g id="ytick_3">
     <g id="line2d_3"/>
     <g id="text_3">
      <!-- catalyst -->
      <g transform="translate(7.2 85.638006) scale(0.09 -0.09)">
       <defs>
        <path id="DejaVuSans-63" d="M 3122 3366 
L 3122 2828 
Q 2878 2963 2633 3030 
Q 2388 3097 2138 3097 
Q 1578 3097 1268 2742 
Q 959 2388 959 1747 
Q 959 1106 1268 751 
Q 1578 397 2138 397 
Q 2388 397 2633 464 
Q 2878 531 3122 666 
L 3122 134 
Q 2881 22 2623 -34 
Q 2366 -91 2075 -91 
Q 1284 -91 818 406 
Q 353 903 353 1747 
Q 353 2603 823 3093 
Q 1294 3584 2113 3584 
Q 2378 3584 2631 3529 
Q 2884 3475 3122 3366 
z
" transform="scale(0.015625)"/>
        <path id="DejaVuSans-61" d="M 2194 1759 
Q 1497 1759 1228 1600 
Q 959 1441 959 1056 
Q 959 750 1161 570 
Q 1363 391 1709 391 
Q 2188 391 2477 730 
Q 2766 1069 2766 1631 
L 2766 1759 
L 2194 1759 
z
M 3341 1997 
L 3341 0 
L 2766 0 
L 2766 531 
Q 2569 213 2275 61 
Q 1981 -91 1556 -91 
Q 1019 -91 701 211 
Q 384 513 384 1019 
Q 384 1609 779 1909 
Q 1175 2209 1959 2209 
L 2766 2209 
L 2766 2266 
Q 2766 2663 2505 2880 
Q 2244 3097 1772 3097 
Q 1472 3097 1187 3025 
Q 903 2953 641 2809 
L 641 3341 
Q 956 3463 1253 3523 
Q 1550 3584 1831 3584 
Q 2591 3584 2966 3190 
Q 3341 2797 3341 1997 
z
" transform="scale(0.015625)"/>
        <path id="DejaVuSans-6c" d="M 603 4863 
L 1178 4863 
L 1178 0 
L 603 0 
L 603 4863 
z
" transform="scale(0.015625)"/>
        <path id="DejaVuSans-79" d="M 2059 -325 
Q 1816 -950 1584 -1140 
Q 1353 -1331 966 -1331 
L 506 -1331 
L 506 -850 
L 844 -850 
Q 1081 -850 1212 -737 
Q 1344 -625 1503 -206 
L 1606 56 
L 191 3500 
L 800 3500 
L 1894 763 
L 2988 3500 
L 3597 3500 
L 2059 -325 
z
" transform="scale(0.015625)"/>
        <path id="DejaVuSans-73" d="M 2834 3397 
L 2834 2853 
Q 2591 2978 2328 3040 
Q 2066 3103 1784 3103 
Q 1356 3103 1142 2972 
Q 928 2841 928 2578 
Q 928 2378 1081 2264 
Q 1234 2150 1697 2047 
L 1894 2003 
Q 2506 1872 2764 1633 
Q 3022 1394 3022 966 
Q 3022 478 2636 193 
Q 2250 -91 1575 -91 
Q 1294 -91 989 -36 
Q 684 19 347 128 
L 347 722 
Q 666 556 975 473 
Q 1284 391 1588 391 
Q 1994 391 2212 530 
Q 2431 669 2431 922 
Q 2431 1156 2273 1281 
Q 2116 1406 1581 1522 
L 1381 1569 
Q 847 1681 609 1914 
Q 372 2147 372 2553 
Q 372 3047 722 3315 
Q 1072 3584 1716 3584 
Q 2034 3584 2315 3537 
Q 2597 3491 2834 3397 
z
" transform="scale(0.015625)"/>
       </defs>
       <use xlink:href="#DejaVuSans-63"/>
       <use xlink:href="#DejaVuSans-61" x="54.980469"/>
       <use xlink:href="#DejaVuSans-74" x="116.259766"/>
       <use xlink:href="#DejaVuSans-61" x="155.46875"/>
       <use xlink:href="#DejaVuSans-6c" x="216.748047"/>
       <use xlink:href="#DejaVuSans-79" x="244.53125"/>
       <use xlink:href="#DejaVuSans-73" x="303.710938"/>
       <use xlink:href="#DejaVuSans-74" x="355.810547"/>
      </g>
     </g>
    </g>
   </g>
   <g id="patch_3">
    <path d="M 45.751406 100.326673 
L 57.84173 100.326673 
L 57.84173 88.254697 
L 45.751406 88.254697 
z
" clip-path="url(#p75fc4ed534)" style="fill: #ffffff"/>
   </g>
   <g id="patch_4">
    <path d="M 57.84173 100.326673 
L 69.932054 100.326673 
L 69.932054 88.254697 
L 57.84173 88.254697 
z
" clip-path="url(#p75fc4ed534)" style="fill: #ffffff"/>
   </g>
   <g id="patch_5">
    <path d="M 69.932054 100.326673 
L 82.022378 100.326673 
L 82.022378 88.254697 
L 69.932054 88.254697 
z
" clip-path="url(#p75fc4ed534)" style="fill: #ffffff"/>
   </g>
   <g id="patch_6">
    <path d="M 82.022378 100.326673 
L 94.112701 100.326673 
L 94.112701 88.254697 
L 82.022378 88.254697 
z
" clip-path="url(#p75fc4ed534)"/>
   </g>
   <g id="patch_7">
    <path d="M 94.112701 100.326673 
L 106.203025 100.326673 
L 106.203025 88.254697 
L 94.112701 88.254697 
z
" clip-path="url(#p75fc4ed534)" style="fill: #ffffff"/>
   </g>
   <g id="patch_8">
    <path d="M 106.203025 100.326673 
L 118.293349 100.326673 
L 118.293349 88.254697 
L 106.203025 88.254697 
z
" clip-path="url(#p75fc4ed534)"/>
   </g>
   <g id="patch_9">
    <path d="M 118.293349 100.326673 
L 130.383673 100.326673 
L 130.383673 88.254697 
L 118.293349 88.254697 
z
" clip-path="url(#p75fc4ed534)"/>
   </g>
   <g id="patch_10">
    <path d="M 130.383673 100.326673 
L 142.473997 100.326673 
L 142.473997 88.254697 
L 130.383673 88.254697 
z
" clip-path="url(#p75fc4ed534)"/>
   </g>
   <g id="patch_11">
    <path d="M 45.751406 112.398649 
L 57.84173 112.398649 
L 57.84173 100.326673 
L 45.751406 100.326673 
z
" clip-path="url(#p75fc4ed534)" style="fill: #5ec962"/>
   </g>
   <g id="patch_12">
    <path d="M 57.84173 112.398649 
L 69.932054 112.398649 
L 69.932054 100.326673 
L 57.84173 100.326673 
z
" clip-path="url(#p75fc4ed534)" style="fill: #3b528b"/>
   </g>
   <g id="patch_13">
    <path d="M 69.932054 112.398649 
L 82.022378 112.398649 
L 82.022378 100.326673 
L 69.932054 100.326673 
z
" clip-path="url(#p75fc4ed534)" style="fill: #440154"/>
   </g>
   <g id="patch_14">
    <path d="M 82.022378 112.398649 
L 94.112701 112.398649 
L 94.112701 100.326673 
L 82.022378 100.326673 
z
" clip-path="url(#p75fc4ed534)" style="fill: #5ec962"/>
   </g>
   <g id="patch_15">
    <path d="M 94.112701 112.398649 
L 106.203025 112.398649 
L 106.203025 100.326673 
L 94.112701 100.326673 
z
" clip-path="url(#p75fc4ed534)" style="fill: #21918c"/>
   </g>
   <g id="patch_16">
    <path d="M 106.203025 112.398649 
L 118.293349 112.398649 
L 118.293349 100.326673 
L 106.203025 100.326673 
z
" clip-path="url(#p75fc4ed534)" style="fill: #3b528b"/>
   </g>
   <g id="patch_17">
    <path d="M 118.293349 112.398649 
L 130.383673 112.398649 
L 130.383673 100.326673 
L 118.293349 100.326673 
z
" clip-path="url(#p75fc4ed534)" style="fill: #fde725"/>
   </g>
   <g id="patch_18">
    <path d="M 130.383673 112.398649 
L 142.473997 112.398649 
L 142.473997 100.326673 
L 130.383673 100.326673 
z
" clip-path="url(#p75fc4ed534)" style="fill: #21918c"/>
   </g>
   <g id="patch_19">
    <path d="M 45.751406 112.398649 
L 45.751406 76.182721 
" style="fill: none; stroke: #000000; stroke-width: 0.8; stroke-linejoin: miter; stroke-linecap: square"/>
   </g>
   <g id="patch_20">
    <path d="M 142.473997 112.398649 
L 142.473997 76.182721 
" style="fill: none; stroke: #000000; stroke-width: 0.8; stroke-linejoin: miter; stroke-linecap: square"/>
   </g>
   <g id="patch_21">
    <path d="M 45.751406 112.398649 
L 142.473997 112.398649 
" style="fill: none; stroke: #000000; stroke-width: 0.8; stroke-linejoin: miter; stroke-linecap: square"/>
   </g>
   <g id="patch_22">
    <path d="M 45.751406 76.182721 
L 142.473997 76.182721 
" style="fill: none; stroke: #000000; stroke-width: 0.8; stroke-linejoin: miter; stroke-linecap: square"/>
   </g>
   <g id="line2d_4">
    <path d="M 45.751406 112.398649 
L 45.751406 76.182721 
" clip-path="url(#p75fc4ed534)" style="fill: none; stroke: #000000; stroke-width: 0.5; stroke-linecap: square"/>
   </g>
   <g id="line2d_5">
    <path d="M 57.84173 112.398649 
L 57.84173 76.182721 
" clip-path="url(#p75fc4ed534)" style="fill: none; stroke: #000000; stroke-width: 0.5; stroke-linecap: square"/>
   </g>
   <g id="line2d_6">
    <path d="M 69.932054 112.398649 
L 69.932054 76.182721 
" clip-path="url(#p75fc4ed534)" style="fill: none; stroke: #000000; stroke-width: 0.5; stroke-linecap: square"/>
   </g>
   <g id="line2d_7">
    <path d="M 82.022378 112.398649 
L 82.022378 76.182721 
" clip-path="url(#p75fc4ed534)" style="fill: none; stroke: #000000; stroke-width: 0.5; stroke-linecap: square"/>
   </g>
   <g id="line2d_8">
    <path d="M 94.112701 112.398649 
L 94.112701 76.182721 
" clip-path="url(#p75fc4ed534)" style="fill: none; stroke: #000000; stroke-width: 0.5; stroke-linecap: square"/>
   </g>
   <g id="line2d_9">
    <path d="M 106.203025 112.398649 
L 106.203025 76.182721 
" clip-path="url(#p75fc4ed534)" style="fill: none; stroke: #000000; stroke-width: 0.5; stroke-linecap: square"/>
   </g>
   <g id="line2d_10">
    <path d="M 118.293349 112.398649 
L 118.293349 76.182721 
" clip-path="url(#p75fc4ed534)" style="fill: none; stroke: #000000; stroke-width: 0.5; stroke-linecap: square"/>
   </g>
   <g id="line2d_11">
    <path d="M 130.383673 112.398649 
L 130.383673 76.182721 
" clip-path="url(#p75fc4ed534)" style="fill: none; stroke: #000000; stroke-width: 0.5; stroke-linecap: square"/>
   </g>
   <g id="line2d_12">
    <path d="M 142.473997 112.398649 
L 142.473997 76.182721 
" clip-path="url(#p75fc4ed534)" style="fill: none; stroke: #000000; stroke-width: 0.5; stroke-linecap: square"/>
   </g>
   <g id="line2d_13">
    <path d="M 45.751406 112.398649 
L 142.473997 112.398649 
" clip-path="url(#p75fc4ed534)" style="fill: none; stroke: #000000; stroke-width: 0.5; stroke-linecap: square"/>
   </g>
   <g id="line2d_14">
    <path d="M 45.751406 100.326673 
L 142.473997 100.326673 
" clip-path="url(#p75fc4ed534)" style="fill: none; stroke: #000000; stroke-width: 0.5; stroke-linecap: square"/>
   </g>
   <g id="line2d_15">
    <path d="M 45.751406 88.254697 
L 142.473997 88.254697 
" clip-path="url(#p75fc4ed534)" style="fill: none; stroke: #000000; stroke-width: 0.5; stroke-linecap: square"/>
   </g>
   <g id="line2d_16">
    <path d="M 45.751406 76.182721 
L 142.473997 76.182721 
" clip-path="url(#p75fc4ed534)" style="fill: none; stroke: #000000; stroke-width: 0.5; stroke-linecap: square"/>
   </g>
   <g id="text_4">
    <g clip-path="url(#p75fc4ed534)">
     <!-- Ni -->
     <g transform="translate(49.066425 83.687315) scale(0.053222 -0.053222)">
      <defs>
       <path id="DejaVuSans-4e" d="M 628 4666 
L 1478 4666 
L 3547 763 
L 3547 4666 
L 4159 4666 
L 4159 0 
L 3309 0 
L 1241 3903 
L 1241 0 
L 628 0 
L 628 4666 
z
" transform="scale(0.015625)"/>
      </defs>
      <use xlink:href="#DejaVuSans-4e"/>
      <use xlink:href="#DejaVuSans-69" x="74.804688"/>
     </g>
    </g>
   </g>
   <g id="text_5">
    <g clip-path="url(#p75fc4ed534)">
     <!-- Pd -->
     <g transform="translate(60.592924 83.687315) scale(0.053222 -0.053222)">
      <defs>
       <path id="DejaVuSans-50" d="M 1259 4147 
L 1259 2394 
L 2053 2394 
Q 2494 2394 2734 2622 
Q 2975 2850 2975 3272 
Q 2975 3691 2734 3919 
Q 2494 4147 2053 4147 
L 1259 4147 
z
M 628 4666 
L 2053 4666 
Q 2838 4666 3239 4311 
Q 3641 3956 3641 3272 
Q 3641 2581 3239 2228 
Q 2838 1875 2053 1875 
L 1259 1875 
L 1259 0 
L 628 0 
L 628 4666 
z
" transform="scale(0.015625)"/>
       <path id="DejaVuSans-64" d="M 2906 2969 
L 2906 4863 
L 3481 4863 
L 3481 0 
L 2906 0 
L 2906 525 
Q 2725 213 2448 61 
Q 2172 -91 1784 -91 
Q 1150 -91 751 415 
Q 353 922 353 1747 
Q 353 2572 751 3078 
Q 1150 3584 1784 3584 
Q 2172 3584 2448 3432 
Q 2725 3281 2906 2969 
z
M 947 1747 
Q 947 1113 1208 752 
Q 1469 391 1925 391 
Q 2381 391 2643 752 
Q 2906 1113 2906 1747 
Q 2906 2381 2643 2742 
Q 2381 3103 1925 3103 
Q 1469 3103 1208 2742 
Q 947 2381 947 1747 
z
" transform="scale(0.015625)"/>
      </defs>
      <use xlink:href="#DejaVuSans-50"/>
      <use xlink:href="#DejaVuSans-64" x="60.302734"/>
     </g>
    </g>
   </g>
   <g id="text_6">
    <g clip-path="url(#p75fc4ed534)">
     <!-- Pd -->
     <g transform="translate(72.683248 83.687315) scale(0.053222 -0.053222)">
      <use xlink:href="#DejaVuSans-50"/>
      <use xlink:href="#DejaVuSans-64" x="60.302734"/>
     </g>
    </g>
   </g>
   <g id="text_7">
    <g clip-path="url(#p75fc4ed534)">
     <!-- Ni -->
     <g transform="translate(85.337397 83.687315) scale(0.053222 -0.053222)">
      <use xlink:href="#DejaVuSans-4e"/>
      <use xlink:href="#DejaVuSans-69" x="74.804688"/>
     </g>
    </g>
   </g>
   <g id="text_8">
    <g clip-path="url(#p75fc4ed534)">
     <!-- Pt -->
     <g transform="translate(97.510049 83.687315) scale(0.053222 -0.053222)">
      <use xlink:href="#DejaVuSans-50"/>
      <use xlink:href="#DejaVuSans-74" x="60.302734"/>
     </g>
    </g>
   </g>
   <g id="text_9">
    <g clip-path="url(#p75fc4ed534)">
     <!-- Pd -->
     <g transform="translate(108.95422 83.687315) scale(0.053222 -0.053222)">
      <use xlink:href="#DejaVuSans-50"/>
      <use xlink:href="#DejaVuSans-64" x="60.302734"/>
     </g>
    </g>
   </g>
   <g id="text_10">
    <g clip-path="url(#p75fc4ed534)">
     <!-- Pt -->
     <g transform="translate(121.690696 83.687315) scale(0.053222 -0.053222)">
      <use xlink:href="#DejaVuSans-50"/>
      <use xlink:href="#DejaVuSans-74" x="60.302734"/>
     </g>
    </g>
   </g>
   <g id="text_11">
    <g clip-path="url(#p75fc4ed534)">
     <!-- Pt -->
     <g transform="translate(133.78102 83.687315) scale(0.053222 -0.053222)">
      <use xlink:href="#DejaVuSans-50"/>
      <use xlink:href="#DejaVuSans-74" x="60.302734"/>
     </g>
    </g>
   </g>
  </g>
  <g id="axes_2">
   <g id="patch_23">
    <path d="M 45.751406 71.871301 
L 142.473997 71.871301 
L 142.473997 7.2 
L 45.751406 7.2 
z
" style="fill: #ffffff"/>
   </g>
   <g id="matplotlib.axis_3">
    <g id="xtick_1"/>
    <g id="xtick_2"/>
    <g id="xtick_3"/>
   </g>
   <g id="matplotlib.axis_4">
    <g id="ytick_4">
     <g id="line2d_17">
      <defs>
       <path id="m083102e363" d="M 0 0 
L -3.5 0 
" style="stroke: #000000; stroke-width: 0.8"/>
      </defs>
      <g>
       <use xlink:href="#m083102e363" x="45.751406" y="64.756396" style="stroke: #000000; stroke-width: 0.8"/>
      </g>
     </g>
     <g id="text_12">
      <!-- 40 -->
      <g transform="translate(28.571406 67.795771) scale(0.08 -0.08)">
       <defs>
        <path id="DejaVuSans-34" d="M 2419 4116 
L 825 1625 
L 2419 1625 
L 2419 4116 
z
M 2253 4666 
L 3047 4666 
L 3047 1625 
L 3713 1625 
L 3713 1100 
L 3047 1100 
L 3047 0 
L 2419 0 
L 2419 1100 
L 313 1100 
L 313 1709 
L 2253 4666 
z
" transform="scale(0.015625)"/>
        <path id="DejaVuSans-30" d="M 2034 4250 
Q 1547 4250 1301 3770 
Q 1056 3291 1056 2328 
Q 1056 1369 1301 889 
Q 1547 409 2034 409 
Q 2525 409 2770 889 
Q 3016 1369 3016 2328 
Q 3016 3291 2770 3770 
Q 2525 4250 2034 4250 
z
M 2034 4750 
Q 2819 4750 3233 4129 
Q 3647 3509 3647 2328 
Q 3647 1150 3233 529 
Q 2819 -91 2034 -91 
Q 1250 -91 836 529 
Q 422 1150 422 2328 
Q 422 3509 836 4129 
Q 1250 4750 2034 4750 
z
" transform="scale(0.015625)"/>
       </defs>
       <use xlink:href="#DejaVuSans-34"/>
       <use xlink:href="#DejaVuSans-30" x="63.623047"/>
      </g>
     </g>
    </g>
    <g id="ytick_5">
     <g id="line2d_18">
      <g>
       <use xlink:href="#m083102e363" x="45.751406" y="38.208243" style="stroke: #000000; stroke-width: 0.8"/>
      </g>
     </g>
     <g id="text_13">
      <!-- 60 -->
      <g transform="translate(28.571406 41.247618) scale(0.08 -0.08)">
       <defs>
        <path id="DejaVuSans-36" d="M 2113 2584 
Q 1688 2584 1439 2293 
Q 1191 2003 1191 1497 
Q 1191 994 1439 701 
Q 1688 409 2113 409 
Q 2538 409 2786 701 
Q 3034 994 3034 1497 
Q 3034 2003 2786 2293 
Q 2538 2584 2113 2584 
z
M 3366 4563 
L 3366 3988 
Q 3128 4100 2886 4159 
Q 2644 4219 2406 4219 
Q 1781 4219 1451 3797 
Q 1122 3375 1075 2522 
Q 1259 2794 1537 2939 
Q 1816 3084 2150 3084 
Q 2853 3084 3261 2657 
Q 3669 2231 3669 1497 
Q 3669 778 3244 343 
Q 2819 -91 2113 -91 
Q 1303 -91 875 529 
Q 447 1150 447 2328 
Q 447 3434 972 4092 
Q 1497 4750 2381 4750 
Q 2619 4750 2861 4703 
Q 3103 4656 3366 4563 
z
" transform="scale(0.015625)"/>
       </defs>
       <use xlink:href="#DejaVuSans-36"/>
       <use xlink:href="#DejaVuSans-30" x="63.623047"/>
      </g>
     </g>
    </g>
    <g id="ytick_6">
     <g id="line2d_19">
      <g>
       <use xlink:href="#m083102e363" x="45.751406" y="11.66009" style="stroke: #000000; stroke-width: 0.8"/>
      </g>
     </g>
     <g id="text_14">
      <!-- 80 -->
      <g transform="translate(28.571406 14.699465) scale(0.08 -0.08)">
       <defs>
        <path id="DejaVuSans-38" d="M 2034 2216 
Q 1584 2216 1326 1975 
Q 1069 1734 1069 1313 
Q 1069 891 1326 650 
Q 1584 409 2034 409 
Q 2484 409 2743 651 
Q 3003 894 3003 1313 
Q 3003 1734 2745 1975 
Q 2488 2216 2034 2216 
z
M 1403 2484 
Q 997 2584 770 2862 
Q 544 3141 544 3541 
Q 544 4100 942 4425 
Q 1341 4750 2034 4750 
Q 2731 4750 3128 4425 
Q 3525 4100 3525 3541 
Q 3525 3141 3298 2862 
Q 3072 2584 2669 2484 
Q 3125 2378 3379 2068 
Q 3634 1759 3634 1313 
Q 3634 634 3220 271 
Q 2806 -91 2034 -91 
Q 1263 -91 848 271 
Q 434 634 434 1313 
Q 434 1759 690 2068 
Q 947 2378 1403 2484 
z
M 1172 3481 
Q 1172 3119 1398 2916 
Q 1625 2713 2034 2713 
Q 2441 2713 2670 2916 
Q 2900 3119 2900 3481 
Q 2900 3844 2670 4047 
Q 2441 4250 2034 4250 
Q 1625 4250 1398 4047 
Q 1172 3844 1172 3481 
z
" transform="scale(0.015625)"/>
       </defs>
       <use xlink:href="#DejaVuSans-38"/>
       <use xlink:href="#DejaVuSans-30" x="63.623047"/>
      </g>
     </g>
    </g>
    <g id="text_15">
     <!-- conv -->
     <g transform="translate(22.491719 51.472369) rotate(-90) scale(0.1 -0.1)">
      <defs>
       <path id="DejaVuSans-6f" d="M 1959 3097 
Q 1497 3097 1228 2736 
Q 959 2375 959 1747 
Q 959 1119 1226 758 
Q 1494 397 1959 397 
Q 2419 397 2687 759 
Q 2956 1122 2956 1747 
Q 2956 2369 2687 2733 
Q 2419 3097 1959 3097 
z
M 1959 3584 
Q 2709 3584 3137 3096 
Q 3566 2609 3566 1747 
Q 3566 888 3137 398 
Q 2709 -91 1959 -91 
Q 1206 -91 779 398 
Q 353 888 353 1747 
Q 353 2609 779 3096 
Q 1206 3584 1959 3584 
z
" transform="scale(0.015625)"/>
       <path id="DejaVuSans-6e" d="M 3513 2113 
L 3513 0 
L 2938 0 
L 2938 2094 
Q 2938 2591 2744 2837 
Q 2550 3084 2163 3084 
Q 1697 3084 1428 2787 
Q 1159 2491 1159 1978 
L 1159 0 
L 581 0 
L 581 3500 
L 1159 3500 
L 1159 2956 
Q 1366 3272 1645 3428 
Q 1925 3584 2291 3584 
Q 2894 3584 3203 3211 
Q 3513 2838 3513 2113 
z
" transform="scale(0.015625)"/>
       <path id="DejaVuSans-76" d="M 191 3500 
L 800 3500 
L 1894 563 
L 2988 3500 
L 3597 3500 
L 2284 0 
L 1503 0 
L 191 3500 
z
" transform="scale(0.015625)"/>
      </defs>
      <use xlink:href="#DejaVuSans-63"/>
      <use xlink:href="#DejaVuSans-6f" x="54.980469"/>
      <use xlink:href="#DejaVuSans-6e" x="116.162109"/>
      <use xlink:href="#DejaVuSans-76" x="179.541016"/>
     </g>
    </g>
   </g>
   <g id="patch_24">
    <path d="M 45.751406 71.871301 
L 45.751406 7.2 
" style="fill: none; stroke: #000000; stroke-width: 0.8; stroke-linejoin: miter; stroke-linecap: square"/>
   </g>
   <g id="PathCollection_1">
    <defs>
     <path id="m2f9b251716" d="M 0 2.14396 
C 0.568585 2.14396 1.113959 1.918059 1.516009 1.516009 
C 1.918059 1.113959 2.14396 0.568585 2.14396 0 
C 2.14396 -0.568585 1.918059 -1.113959 1.516009 -1.516009 
C 1.113959 -1.918059 0.568585 -2.14396 0 -2.14396 
C -0.568585 -2.14396 -1.113959 -1.918059 -1.516009 -1.516009 
C -1.918059 -1.113959 -2.14396 -0.568585 -2.14396 0 
C -2.14396 0.568585 -1.918059 1.113959 -1.516009 1.516009 
C -1.113959 1.918059 -0.568585 2.14396 0 2.14396 
z
"/>
    </defs>
    <g>
     <use xlink:href="#m2f9b251716" x="51.796568" y="67.411211"/>
    </g>
   </g>
   <g id="PathCollection_2">
    <g>
     <use xlink:href="#m2f9b251716" x="63.886892" y="58.119358"/>
    </g>
   </g>
   <g id="PathCollection_3">
    <g>
     <use xlink:href="#m2f9b251716" x="75.977216" y="50.154912"/>
    </g>
   </g>
   <g id="PathCollection_4">
    <g>
     <use xlink:href="#m2f9b251716" x="88.06754" y="44.845281"/>
    </g>
   </g>
   <g id="PathCollection_5">
    <g>
     <use xlink:href="#m2f9b251716" x="100.157863" y="35.553427"/>
    </g>
   </g>
   <g id="PathCollection_6">
    <g>
     <use xlink:href="#m2f9b251716" x="112.248187" y="23.606759"/>
    </g>
   </g>
   <g id="PathCollection_7">
    <g>
     <use xlink:href="#m2f9b251716" x="124.338511" y="16.96972"/>
    </g>
   </g>
   <g id="PathCollection_8">
    <g>
     <use xlink:href="#m2f9b251716" x="136.428835" y="11.66009"/>
    </g>
   </g>
  </g>
  <g id="axes_3">
   <g id="patch_25">
    <path d="M 161.602616 97.610479 
L 168.252294 97.610479 
L 168.252294 90.970892 
L 161.602616 90.970892 
z
" clip-path="url(#pb1bfe038e1)" style="fill: #ffffff; stroke: #000000; stroke-width: 0.3; stroke-linejoin: miter"/>
   </g>
   <g id="patch_26">
    <path d="M 197.873587 97.610479 
L 204.523265 97.610479 
L 204.523265 90.970892 
L 197.873587 90.970892 
z
" clip-path="url(#pb1bfe038e1)" style="stroke: #000000; stroke-width: 0.3; stroke-linejoin: miter"/>
   </g>
   <g id="patch_27">
    <path d="M 156.585132 109.682455 
L 158.008767 109.682455 
L 158.008767 103.042868 
L 156.585132 103.042868 
z
" clip-path="url(#pb1bfe038e1)" style="fill: #440154"/>
   </g>
   <g id="patch_28">
    <path d="M 158.008767 109.682455 
L 159.432403 109.682455 
L 159.432403 103.042868 
L 158.008767 103.042868 
z
" clip-path="url(#pb1bfe038e1)" style="fill: #460a5d"/>
   </g>
   <g id="patch_29">
    <path d="M 159.432403 109.682455 
L 160.856039 109.682455 
L 160.856039 103.042868 
L 159.432403 103.042868 
z
" clip-path="url(#pb1bfe038e1)" style="fill: #481467"/>
   </g>
   <g id="patch_30">
    <path d="M 160.856039 109.682455 
L 162.279674 109.682455 
L 162.279674 103.042868 
L 160.856039 103.042868 
z
" clip-path="url(#pb1bfe038e1)" style="fill: #481c6e"/>
   </g>
   <g id="patch_31">
    <path d="M 162.279674 109.682455 
L 163.70331 109.682455 
L 163.70331 103.042868 
L 162.279674 103.042868 
z
" clip-path="url(#pb1bfe038e1)" style="fill: #482576"/>
   </g>
   <g id="patch_32">
    <path d="M 163.70331 109.682455 
L 165.126945 109.682455 
L 165.126945 103.042868 
L 163.70331 103.042868 
z
" clip-path="url(#pb1bfe038e1)" style="fill: #472d7b"/>
   </g>
   <g id="patch_33">
    <path d="M 165.126945 109.682455 
L 166.550581 109.682455 
L 166.550581 103.042868 
L 165.126945 103.042868 
z
" clip-path="url(#pb1bfe038e1)" style="fill: #453581"/>
   </g>
   <g id="patch_34">
    <path d="M 166.550581 109.682455 
L 167.974217 109.682455 
L 167.974217 103.042868 
L 166.550581 103.042868 
z
" clip-path="url(#pb1bfe038e1)" style="fill: #433d84"/>
   </g>
   <g id="patch_35">
    <path d="M 167.974217 109.682455 
L 169.397852 109.682455 
L 169.397852 103.042868 
L 167.974217 103.042868 
z
" clip-path="url(#pb1bfe038e1)" style="fill: #404588"/>
   </g>
   <g id="patch_36">
    <path d="M 169.397852 109.682455 
L 170.821488 109.682455 
L 170.821488 103.042868 
L 169.397852 103.042868 
z
" clip-path="url(#pb1bfe038e1)" style="fill: #3d4d8a"/>
   </g>
   <g id="patch_37">
    <path d="M 170.821488 109.682455 
L 172.245124 109.682455 
L 172.245124 103.042868 
L 170.821488 103.042868 
z
" clip-path="url(#pb1bfe038e1)" style="fill: #3a538b"/>
   </g>
   <g id="patch_38">
    <path d="M 172.245124 109.682455 
L 173.668759 109.682455 
L 173.668759 103.042868 
L 172.245124 103.042868 
z
" clip-path="url(#pb1bfe038e1)" style="fill: #375b8d"/>
   </g>
   <g id="patch_39">
    <path d="M 173.668759 109.682455 
L 175.092395 109.682455 
L 175.092395 103.042868 
L 173.668759 103.042868 
z
" clip-path="url(#pb1bfe038e1)" style="fill: #34618d"/>
   </g>
   <g id="patch_40">
    <path d="M 175.092395 109.682455 
L 176.51603 109.682455 
L 176.51603 103.042868 
L 175.092395 103.042868 
z
" clip-path="url(#pb1bfe038e1)" style="fill: #31688e"/>
   </g>
   <g id="patch_41">
    <path d="M 176.51603 109.682455 
L 177.939666 109.682455 
L 177.939666 103.042868 
L 176.51603 103.042868 
z
" clip-path="url(#pb1bfe038e1)" style="fill: #2e6e8e"/>
   </g>
   <g id="patch_42">
    <path d="M 177.939666 109.682455 
L 179.363302 109.682455 
L 179.363302 103.042868 
L 177.939666 103.042868 
z
" clip-path="url(#pb1bfe038e1)" style="fill: #2b748e"/>
   </g>
   <g id="patch_43">
    <path d="M 179.363302 109.682455 
L 180.786937 109.682455 
L 180.786937 103.042868 
L 179.363302 103.042868 
z
" clip-path="url(#pb1bfe038e1)" style="fill: #297b8e"/>
   </g>
   <g id="patch_44">
    <path d="M 180.786937 109.682455 
L 182.210573 109.682455 
L 182.210573 103.042868 
L 180.786937 103.042868 
z
" clip-path="url(#pb1bfe038e1)" style="fill: #26818e"/>
   </g>
   <g id="patch_45">
    <path d="M 182.210573 109.682455 
L 183.634209 109.682455 
L 183.634209 103.042868 
L 182.210573 103.042868 
z
" clip-path="url(#pb1bfe038e1)" style="fill: #24878e"/>
   </g>
   <g id="patch_46">
    <path d="M 183.634209 109.682455 
L 185.057844 109.682455 
L 185.057844 103.042868 
L 183.634209 103.042868 
z
" clip-path="url(#pb1bfe038e1)" style="fill: #228d8d"/>
   </g>
   <g id="patch_47">
    <path d="M 185.057844 109.682455 
L 186.48148 109.682455 
L 186.48148 103.042868 
L 185.057844 103.042868 
z
" clip-path="url(#pb1bfe038e1)" style="fill: #20938c"/>
   </g>
   <g id="patch_48">
    <path d="M 186.48148 109.682455 
L 187.905115 109.682455 
L 187.905115 103.042868 
L 186.48148 103.042868 
z
" clip-path="url(#pb1bfe038e1)" style="fill: #1f998a"/>
   </g>
   <g id="patch_49">
    <path d="M 187.905115 109.682455 
L 189.328751 109.682455 
L 189.328751 103.042868 
L 187.905115 103.042868 
z
" clip-path="url(#pb1bfe038e1)" style="fill: #1fa088"/>
   </g>
   <g id="patch_50">
    <path d="M 189.328751 109.682455 
L 190.752387 109.682455 
L 190.752387 103.042868 
L 189.328751 103.042868 
z
" clip-path="url(#pb1bfe038e1)" style="fill: #21a585"/>
   </g>
   <g id="patch_51">
    <path d="M 190.752387 109.682455 
L 192.176022 109.682455 
L 192.176022 103.042868 
L 190.752387 103.042868 
z
" clip-path="url(#pb1bfe038e1)" style="fill: #25ac82"/>
   </g>
   <g id="patch_52">
    <path d="M 192.176022 109.682455 
L 193.599658 109.682455 
L 193.599658 103.042868 
L 192.176022 103.042868 
z
" clip-path="url(#pb1bfe038e1)" style="fill: #2db27d"/>
   </g>
   <g id="patch_53">
    <path d="M 193.599658 109.682455 
L 195.023294 109.682455 
L 195.023294 103.042868 
L 193.599658 103.042868 
z
" clip-path="url(#pb1bfe038e1)" style="fill: #35b779"/>
   </g>
   <g id="patch_54">
    <path d="M 195.023294 109.682455 
L 196.446929 109.682455 
L 196.446929 103.042868 
L 195.023294 103.042868 
z
" clip-path="url(#pb1bfe038e1)" style="fill: #40bd72"/>
   </g>
   <g id="patch_55">
    <path d="M 196.446929 109.682455 
L 197.870565 109.682455 
L 197.870565 103.042868 
L 196.446929 103.042868 
z
" clip-path="url(#pb1bfe038e1)" style="fill: #4cc26c"/>
   </g>
   <g id="patch_56">
    <path d="M 197.870565 109.682455 
L 199.2942 109.682455 
L 199.2942 103.042868 
L 197.870565 103.042868 
z
" clip-path="url(#pb1bfe038e1)" style="fill: #5ac864"/>
   </g>
   <g id="patch_57">
    <path d="M 199.2942 109.682455 
L 200.717836 109.682455 
L 200.717836 103.042868 
L 199.2942 103.042868 
z
" clip-path="url(#pb1bfe038e1)" style="fill: #67cc5c"/>
   </g>
   <g id="patch_58">
    <path d="M 200.717836 109.682455 
L 202.141472 109.682455 
L 202.141472 103.042868 
L 200.717836 103.042868 
z
" clip-path="url(#pb1bfe038e1)" style="fill: #77d153"/>
   </g>
   <g id="patch_59">
    <path d="M 202.141472 109.682455 
L 203.565107 109.682455 
L 203.565107 103.042868 
L 202.141472 103.042868 
z
" clip-path="url(#pb1bfe038e1)" style="fill: #89d548"/>
   </g>
   <g id="patch_60">
    <path d="M 203.565107 109.682455 
L 204.988743 109.682455 
L 204.988743 103.042868 
L 203.565107 103.042868 
z
" clip-path="url(#pb1bfe038e1)" style="fill: #98d83e"/>
   </g>
   <g id="patch_61">
    <path d="M 204.988743 109.682455 
L 206.412379 109.682455 
L 206.412379 103.042868 
L 204.988743 103.042868 
z
" clip-path="url(#pb1bfe038e1)" style="fill: #aadc32"/>
   </g>
   <g id="patch_62">
    <path d="M 206.412379 109.682455 
L 207.836014 109.682455 
L 207.836014 103.042868 
L 206.412379 103.042868 
z
" clip-path="url(#pb1bfe038e1)" style="fill: #bade28"/>
   </g>
   <g id="patch_63">
    <path d="M 207.836014 109.682455 
L 209.25965 109.682455 
L 209.25965 103.042868 
L 207.836014 103.042868 
z
" clip-path="url(#pb1bfe038e1)" style="fill: #cde11d"/>
   </g>
   <g id="patch_64">
    <path d="M 209.25965 109.682455 
L 210.683285 109.682455 
L 210.683285 103.042868 
L 209.25965 103.042868 
z
" clip-path="url(#pb1bfe038e1)" style="fill: #dde318"/>
   </g>
   <g id="patch_65">
    <path d="M 210.683285 109.682455 
L 212.106921 109.682455 
L 212.106921 103.042868 
L 210.683285 103.042868 
z
" clip-path="url(#pb1bfe038e1)" style="fill: #efe51c"/>
   </g>
   <g id="patch_66">
    <path d="M 212.106921 109.682455 
L 213.530557 109.682455 
L 213.530557 103.042868 
L 212.106921 103.042868 
z
" clip-path="url(#pb1bfe038e1)" style="fill: #fde725"/>
   </g>
   <g id="text_16">
    <!-- -1 -->
    <g transform="translate(169.340423 95.759291) scale(0.053222 -0.053222)">
     <defs>
      <path id="DejaVuSans-2d" d="M 313 2009 
L 1997 2009 
L 1997 1497 
L 313 1497 
L 313 2009 
z
" transform="scale(0.015625)"/>
      <path id="DejaVuSans-31" d="M 794 531 
L 1825 531 
L 1825 4091 
L 703 3866 
L 703 4441 
L 1819 4666 
L 2450 4666 
L 2450 531 
L 3481 531 
L 3481 0 
L 794 0 
L 794 531 
z
" transform="scale(0.015625)"/>
     </defs>
     <use xlink:href="#DejaVuSans-2d"/>
     <use xlink:href="#DejaVuSans-31" x="36.083984"/>
    </g>
   </g>
   <g id="text_17">
    <!-- 1 -->
    <g transform="translate(205.611395 95.759291) scale(0.053222 -0.053222)">
     <use xlink:href="#DejaVuSans-31"/>
    </g>
   </g>
   <g id="patch_67">
    <path d="M 156.585132 109.682455 
L 213.530557 109.682455 
L 213.530557 103.042868 
L 156.585132 103.042868 
L 156.585132 109.682455 
z
" clip-path="url(#pb1bfe038e1)" style="fill: none; stroke: #000000; stroke-width: 0.3; stroke-linejoin: miter"/>
   </g>
   <g id="text_18">
    <!-- -1 -->
    <g transform="translate(149.465143 107.831267) scale(0.053222 -0.053222)">
     <use xlink:href="#DejaVuSans-2d"/>
     <use xlink:href="#DejaVuSans-31" x="36.083984"/>
    </g>
   </g>
   <g id="text_19">
    <!-- 1 -->
    <g transform="translate(215.344105 107.831267) scale(0.053222 -0.053222)">
     <use xlink:href="#DejaVuSans-31"/>
    </g>
   </g>
  </g>
 </g>
 <defs>
  <clipPath id="p75fc4ed534">
   <rect x="45.751406" y="76.182721" width="96.72259" height="36.215929"/>
  </clipPath>
  <clipPath id="pb1bfe038e1">
   <rect x="146.791969" y="76.182721" width="72.541943" height="36.215929"/>
  </clipPath>
 </defs>
</svg>
